<svg width="21" height="21" viewBox="0 0 21 21" fill="none" xmlns="http://www.w3.org/2000/svg">
<g clip-path="url(#clip0_2_40)">
<path d="M16.625 0H4.375C3.2151 0.00138938 2.10311 0.462772 1.28294 1.28294C0.462772 2.10311 0.00138938 3.2151 0 4.375L0 16.625C0.00138938 17.7849 0.462772 18.8969 1.28294 19.7171C2.10311 20.5372 3.2151 20.9986 4.375 21H16.625C17.7849 20.9986 18.8969 20.5372 19.7171 19.7171C20.5372 18.8969 20.9986 17.7849 21 16.625V4.375C20.9986 3.2151 20.5372 2.10311 19.7171 1.28294C18.8969 0.462772 17.7849 0.00138938 16.625 0V0ZM19.25 16.625C19.25 17.3212 18.9734 17.9889 18.4812 18.4812C17.9889 18.9734 17.3212 19.25 16.625 19.25H4.375C3.67881 19.25 3.01113 18.9734 2.51884 18.4812C2.02656 17.9889 1.75 17.3212 1.75 16.625V4.375C1.75 3.67881 2.02656 3.01113 2.51884 2.51884C3.01113 2.02656 3.67881 1.75 4.375 1.75H16.625C17.3212 1.75 17.9889 2.02656 18.4812 2.51884C18.9734 3.01113 19.25 3.67881 19.25 4.375V16.625Z" fill="#5CA8E0"/>
<path d="M8.16637 13.9291L4.73724 10.5C4.57316 10.3359 4.35064 10.2438 4.11862 10.2438C3.8866 10.2438 3.66408 10.3359 3.49999 10.5C3.33596 10.6641 3.2438 10.8866 3.2438 11.1186C3.2438 11.3506 3.33596 11.5731 3.49999 11.7372L6.92912 15.1664C7.09163 15.3289 7.28458 15.4579 7.49695 15.5459C7.70931 15.6339 7.93693 15.6792 8.16681 15.6792C8.39668 15.6792 8.6243 15.6339 8.83667 15.5459C9.04903 15.4579 9.24198 15.3289 9.40449 15.1664L17.5 7.07086C17.664 6.90677 17.7562 6.68425 17.7562 6.45224C17.7562 6.22022 17.664 5.9977 17.5 5.83361V5.83361C17.3359 5.66957 17.1134 5.57742 16.8814 5.57742C16.6493 5.57742 16.4268 5.66957 16.2627 5.83361L8.16637 13.9291Z" fill="#5CA8E0"/>
</g>
<defs>
<clipPath id="clip0_2_40">
<rect width="21" height="21" fill="white"/>
</clipPath>
</defs>
</svg>
