<svg width="14" height="13" viewBox="0 0 14 13" fill="none" xmlns="http://www.w3.org/2000/svg">
<g clip-path="url(#clip0_2_22)">
<path d="M13.0194 2.40013L4.95833 9.88488C4.90413 9.9354 4.83972 9.97549 4.7688 10.0028C4.69788 10.0302 4.62183 10.0443 4.54504 10.0443C4.46824 10.0443 4.3922 10.0302 4.32127 10.0028C4.25035 9.97549 4.18594 9.9354 4.13174 9.88488L1.01441 6.9875C0.960214 6.93698 0.895806 6.89689 0.824883 6.86953C0.75396 6.84218 0.677917 6.8281 0.601119 6.8281C0.524321 6.8281 0.448279 6.84218 0.377356 6.86953C0.306433 6.89689 0.242025 6.93698 0.187828 6.9875V6.9875C0.133416 7.03783 0.0902423 7.09764 0.0607831 7.1635C0.0313238 7.22935 0.0161591 7.29996 0.0161591 7.37127C0.0161591 7.44259 0.0313238 7.5132 0.0607831 7.57905C0.0902423 7.64491 0.133416 7.70472 0.187828 7.75505L3.30633 10.6503C3.6353 10.9552 4.08111 11.1264 4.54591 11.1264C5.01071 11.1264 5.45652 10.9552 5.78549 10.6503L13.846 3.16713C13.9003 3.11681 13.9434 3.05704 13.9728 2.99123C14.0022 2.92543 14.0174 2.85488 14.0174 2.78363C14.0174 2.71238 14.0022 2.64183 13.9728 2.57603C13.9434 2.51022 13.9003 2.45045 13.846 2.40013C13.7918 2.3496 13.7274 2.30951 13.6565 2.28216C13.5855 2.2548 13.5095 2.24072 13.4327 2.24072C13.3559 2.24072 13.2799 2.2548 13.2089 2.28216C13.138 2.30951 13.0736 2.3496 13.0194 2.40013Z" fill="white"/>
</g>
<defs>
<clipPath id="clip0_2_22">
<rect width="14" height="13" fill="white"/>
</clipPath>
</defs>
</svg>
