<svg width="12" height="11" viewBox="0 0 12 11" fill="none" xmlns="http://www.w3.org/2000/svg">
<g clip-path="url(#clip0_2_24)">
<path d="M11.8536 0.134438C11.7599 0.0485137 11.6327 0.000244141 11.5001 0.000244141C11.3676 0.000244141 11.2404 0.0485137 11.1466 0.134438L6.00014 4.85206L0.853637 0.134438C0.759874 0.0485137 0.63272 0.000244141 0.500137 0.000244141C0.367555 0.000244141 0.240401 0.0485137 0.146637 0.134438V0.134438C0.0529019 0.220388 0.000244141 0.336946 0.000244141 0.45848C0.000244141 0.580013 0.0529019 0.696571 0.146637 0.782521L5.29314 5.50015L0.146637 10.2178C0.0529019 10.3037 0.000244141 10.4203 0.000244141 10.5418C0.000244141 10.6633 0.0529019 10.7799 0.146637 10.8659V10.8659C0.240401 10.9518 0.367555 11 0.500137 11C0.63272 11 0.759874 10.9518 0.853637 10.8659L6.00014 6.14823L11.1466 10.8659C11.2404 10.9518 11.3676 11 11.5001 11C11.6327 11 11.7599 10.9518 11.8536 10.8659C11.9474 10.7799 12 10.6633 12 10.5418C12 10.4203 11.9474 10.3037 11.8536 10.2178L6.70714 5.50015L11.8536 0.782521C11.9474 0.696571 12 0.580013 12 0.45848C12 0.336946 11.9474 0.220388 11.8536 0.134438V0.134438Z" fill="white"/>
</g>
<defs>
<clipPath id="clip0_2_24">
<rect width="12" height="11" fill="white"/>
</clipPath>
</defs>
</svg>
