<svg width="24" height="24" viewBox="0 0 24 24" fill="none" xmlns="http://www.w3.org/2000/svg">
<g clip-path="url(#clip0_12_2)">
<path d="M11.9999 0C9.62651 0 7.30643 0.703788 5.33304 2.02236C3.35965 3.34094 1.82158 5.21508 0.913329 7.4078C0.00507736 9.60051 -0.232563 12.0133 0.23046 14.3411C0.693483 16.6689 1.83637 18.807 3.5146 20.4853C5.19283 22.1635 7.33103 23.3064 9.6588 23.7694C11.9866 24.2324 14.3994 23.9948 16.5921 23.0865C18.7848 22.1783 20.6589 20.6402 21.9775 18.6668C23.2961 16.6934 23.9999 14.3734 23.9999 12C23.9964 8.81846 22.7311 5.76821 20.4814 3.51852C18.2317 1.26883 15.1814 0.00344108 11.9999 0V0ZM11.9999 22C10.0221 22 8.08867 21.4135 6.44418 20.3147C4.79969 19.2159 3.51796 17.6541 2.76109 15.8268C2.00421 13.9996 1.80618 11.9889 2.19203 10.0491C2.57788 8.10929 3.53029 6.32746 4.92882 4.92893C6.32734 3.53041 8.10917 2.578 10.049 2.19215C11.9888 1.80629 13.9995 2.00433 15.8267 2.7612C17.654 3.51808 19.2158 4.79981 20.3146 6.4443C21.4134 8.08879 21.9999 10.0222 21.9999 12C21.997 14.6513 20.9425 17.1931 19.0677 19.0678C17.193 20.9426 14.6512 21.9971 11.9999 22V22Z" fill="#5CA8E0"/>
<path d="M12 10H11C10.7348 10 10.4804 10.1054 10.2929 10.2929C10.1054 10.4804 10 10.7348 10 11C10 11.2652 10.1054 11.5196 10.2929 11.7071C10.4804 11.8946 10.7348 12 11 12H12V18C12 18.2652 12.1054 18.5196 12.2929 18.7071C12.4804 18.8946 12.7348 19 13 19C13.2652 19 13.5196 18.8946 13.7071 18.7071C13.8946 18.5196 14 18.2652 14 18V12C14 11.4696 13.7893 10.9609 13.4142 10.5858C13.0391 10.2107 12.5304 10 12 10Z" fill="#5CA8E0"/>
<path d="M12 8C12.8284 8 13.5 7.32843 13.5 6.5C13.5 5.67157 12.8284 5 12 5C11.1716 5 10.5 5.67157 10.5 6.5C10.5 7.32843 11.1716 8 12 8Z" fill="#5CA8E0"/>
</g>
<defs>
<clipPath id="clip0_12_2">
<rect width="24" height="24" fill="white"/>
</clipPath>
</defs>
</svg>
